<svg width="715" height="701" viewBox="0 0 715 701" fill="none" xmlns="http://www.w3.org/2000/svg">
<path fill-rule="evenodd" clip-rule="evenodd" d="M21.1323 174.189C21.134 174.189 21.1357 174.189 21.1374 174.189L21.1297 174.204L21.1323 174.189ZM18.8456 174.533C19.5426 174.295 20.3167 174.203 21.1323 174.189L21.1679 173.975C19.7634 173.494 17.9926 173.28 16.5729 174.09C16.1335 174.303 15.7535 174.643 15.3808 174.976C14.8083 175.488 14.2532 175.984 13.5273 175.984C13.1295 175.995 12.769 175.947 12.3996 175.899C12.0034 175.846 11.5969 175.792 11.1229 175.808L10.9932 175.999C11.558 177.397 13.0541 178.665 14.6875 178.184C15.0386 178.092 15.4126 177.833 15.6645 177.596C15.9954 177.254 16.1998 176.938 16.3846 176.652C16.4684 176.522 16.5482 176.399 16.6339 176.282C17.1051 175.521 17.7149 175.021 18.4203 174.701C17.875 176.506 17.2344 178.312 16.3133 179.917C15.7573 180.67 15.2672 181.312 14.7823 181.947L14.7823 181.947C14.1355 182.794 13.498 183.629 12.7258 184.699L12.8097 184.912C15.0157 185.187 17.0384 183.537 17.6796 181.498C18.5846 179.284 18.8948 176.894 18.8456 174.533ZM19.4733 188.663C25.1904 186.784 23.2134 178.634 21.3891 174.524L21.3815 174.516L21.1601 174.585C21.3433 175.823 21.496 177.052 21.5189 178.275C21.7021 180.643 21.1907 182.972 20.4503 185.119C20.1831 186.196 19.832 187.212 19.3206 188.487L19.4733 188.663ZM13.4816 188.382C20.252 188.344 20.565 179.59 20.252 174.564L20.023 174.549C19.9596 174.857 19.8983 175.165 19.837 175.473L19.837 175.473L19.837 175.473C19.6329 176.497 19.4306 177.513 19.1605 178.506C18.3209 182.44 16.1608 185.251 13.3976 188.169L13.4816 188.382Z" fill="url(#paint0_linear_3119_4158)"/>
<path d="M236.393 57.7169L194.984 93.6333L208.403 103.701L187.756 119.528L192.228 149.379L165.979 154.696L160.384 187.16L134.218 177.856L112.83 199.359L89.9697 177.856L62.5979 190.567L57.0793 159.21L17.3039 178.91L32.7378 130.306L0 117.825L25.8223 92.3806L11.1289 61.6889L37.9511 54.2719L42.8896 20.479L69.8721 27.7661L87.405 1.03121L109.533 16.3923L135.493 0L147.911 27.7661L180.687 26.0322L177.23 56.6704L236.408 57.7245L236.393 57.7169Z" fill="url(#paint1_radial_3119_4158)"/>
<path d="M101.961 85.0937C101.633 85.0937 101.312 84.9562 101.083 84.6888C100.679 84.2076 100.74 83.4819 101.221 83.0771C105.304 79.6397 107.129 77.4857 107.877 73.0935C107.953 72.6581 108.274 72.2991 108.701 72.1769C109.129 72.0546 109.587 72.1998 109.877 72.5359C114.953 78.5016 120.089 79.0057 127.791 77.8599C128.409 77.7683 128.997 78.1961 129.089 78.8224C129.18 79.4488 128.753 80.0293 128.127 80.121C120.54 81.2515 114.93 80.8466 109.64 75.6448C108.564 79.3495 106.457 81.6487 102.694 84.8187C102.48 85.002 102.221 85.086 101.954 85.086L101.961 85.0937Z" fill="url(#paint2_linear_3119_4158)"/>
<path fill-rule="evenodd" clip-rule="evenodd" d="M237.972 56.7682C236.286 57.2723 234.454 57.4862 232.668 57.6695V57.6772L232.645 57.9063C234.484 58.4028 236.362 58.7313 238.301 58.5785C238.399 58.57 238.5 58.5622 238.601 58.5544C239.505 58.4842 240.504 58.4067 241.3 57.7612C242.171 57.089 242.85 55.989 242.674 54.8509L242.468 54.7516C241.507 55.2787 240.842 55.5307 240.133 55.7828C239.801 55.8849 239.481 56.0567 239.148 56.2358C238.784 56.4317 238.403 56.6365 237.972 56.7682ZM232.721 58.0826C235.187 59.0985 238.003 59.5186 240.537 58.7242C240.678 58.6647 240.816 58.6066 240.953 58.5493C242.67 57.827 244.051 57.2466 245.713 55.9514L245.919 56.0431C245.98 57.6701 244.85 59.1749 243.484 60.0075C242.4 60.6186 241.125 60.7408 239.904 60.7637C237.248 60.8477 234.637 59.8853 232.599 58.2659L232.721 58.0673V58.0826ZM233.202 59.9019C235.362 60.5283 237.591 61.0401 239.804 61.2311C240.523 61.205 241.174 61.1988 241.803 61.1928C243.2 61.1795 244.482 61.1673 246.125 60.9408L246.277 61.1165C245.781 62.3845 244.453 63.1483 243.201 63.4233C242.036 63.7131 240.896 63.4108 239.837 63.1301C239.723 63.1 239.611 63.0702 239.499 63.0414C237.194 62.4456 235.072 61.3915 233.103 60.1158L233.202 59.9096V59.9019Z" fill="url(#paint3_linear_3119_4158)"/>
<path d="M52.8429 93.5508C52.3925 93.5508 51.9651 93.2835 51.7819 92.8328C51.5453 92.2446 51.8277 91.5801 52.4154 91.3433C59.369 88.5246 61.2696 83.72 62.3001 78.9459C62.4222 78.3883 62.926 78.0064 63.4985 78.0446C64.0709 78.0828 64.5213 78.5411 64.5595 79.1063C64.7961 82.62 66.0403 85.4769 67.9714 86.9358C69.0705 87.7684 70.3223 88.0892 71.4978 87.8372C72.1161 87.7073 72.7267 88.1045 72.8565 88.7232C72.9862 89.342 72.5893 89.953 71.9711 90.0829C70.1391 90.4725 68.2233 90.0065 66.5898 88.7691C65.0937 87.6386 63.9488 85.9734 63.2008 83.911C61.6895 87.6157 58.9416 91.1599 53.2703 93.4592C53.1329 93.5126 52.9803 93.5432 52.8429 93.5432V93.5508Z" fill="url(#paint4_linear_3119_4158)"/>
<path d="M93.1567 108.124C94.8707 107.146 94.959 104.069 93.3538 101.25C91.7486 98.4317 89.0578 96.9393 87.3438 97.9169C85.6297 98.8945 85.5415 101.972 87.1467 104.79C88.7519 107.609 91.4426 109.101 93.1567 108.124Z" fill="url(#paint5_linear_3119_4158)"/>
<path d="M236.385 58.3134L265.1 80.068L240.019 14.4528L236.385 58.3134Z" fill="url(#paint6_linear_3119_4158)"/>
<path d="M240.019 14.4528L265.1 80.068L272.543 43.4488L240.019 14.4528Z" fill="url(#paint7_linear_3119_4158)"/>
<path d="M272.55 43.4469L249.353 38.8714L236.393 58.3039L257.704 60.7177L272.542 43.4469H272.55Z" fill="url(#paint8_linear_3119_4158)"/>
<path d="M233.581 57.7776C234.634 57.4033 234.978 56.4103 236.001 56.1048C236.298 55.9978 236.802 55.8374 236.802 55.5624C236.764 54.2104 236.894 53.0035 237.81 51.7203L238.039 51.705C238.382 52.0487 238.619 52.4077 238.794 52.7896C239.825 54.5312 238.657 57.686 236.229 57.4492C236.062 57.4492 236.039 57.4262 235.886 57.4644C235.283 57.7165 234.344 58.0908 233.619 57.9991L233.573 57.7776H233.581Z" fill="url(#paint9_linear_3119_4158)"/>
<path d="M410.34 318.211L443.678 347.412" stroke="black" stroke-width="1.39931" stroke-miterlimit="10"/>
<path d="M290.831 335.679L296.548 420.39L329.432 401.078L356.472 446.916L374.393 402.394L455.324 446.916L451.977 378.151L497.412 353.513L472.173 306.149L527.337 244.459L470.758 245.025L469.767 179.939L413.471 210.854L373.765 129.036L349.8 215.666L313.648 172.564L304.291 240.622L264.766 244.459L287.94 300.543L263.11 329.678L290.831 335.679Z" fill="url(#paint10_radial_3119_4158)"/>
<path d="M308.85 374.583L292.528 337.661L327.896 319.712C341.572 307.828 312.656 281.615 308.85 287.512L265.276 341.294L308.567 380.873C310.25 379.741 310.612 377.823 308.835 374.583H308.85Z" fill="url(#paint11_radial_3119_4158)"/>
<path d="M396.783 426.871L428.06 401.711L425.985 363.247L339.292 342.207L312.15 365.465L314.462 401.318L396.783 426.871Z" fill="url(#paint12_linear_3119_4158)"/>
<path d="M430.047 405.71C430.755 405.332 431.557 404.593 432.485 403.351C434.718 400.379 476.894 362.154 477.526 358.441C478.157 354.729 439.688 298.589 430.489 296.419C425.58 295.374 424.325 305.052 419.255 312.053C414.184 319.051 410.263 322.05 404.443 327.387L445.851 360.363L425.409 397.879C425.409 397.879 427.107 407.329 430.047 405.725" fill="url(#paint13_radial_3119_4158)"/>
<path d="M382.779 303.31C376.014 311.256 369.936 314.899 364.739 314.138C359.558 313.376 354.827 308.18 350.658 298.696C350.315 297.896 349.389 297.541 348.589 297.884C347.789 298.228 347.434 299.154 347.777 299.954C352.397 310.495 357.959 316.326 364.281 317.244C365.391 317.404 366.532 317.418 367.673 317.29C373.111 316.678 378.871 312.738 385.174 305.335C385.733 304.671 385.653 303.683 385.005 303.123C384.356 302.563 383.352 302.644 382.792 303.293L382.779 303.31Z" fill="url(#paint14_linear_3119_4158)"/>
<path d="M353.163 284.699C353.43 285.281 353.996 285.627 354.594 285.627C354.814 285.627 355.034 285.58 355.239 285.486C356.025 285.124 356.371 284.196 356.025 283.41C353.116 277.01 350.474 273.204 347.801 271.6L349.389 264.445C349.577 263.596 349.043 262.763 348.194 262.574C347.345 262.385 346.511 262.92 346.322 263.769L344.797 270.704C342.014 270.673 339.529 272.764 337.107 277.12C336.683 277.875 336.95 278.834 337.721 279.259C338.476 279.683 339.435 279.416 339.859 278.645C341.102 276.412 343.02 273.755 344.844 273.833C346.417 273.896 349.137 275.83 353.179 284.715L353.163 284.699Z" fill="url(#paint15_linear_3119_4158)"/>
<path d="M403.672 287.75C400.967 280.831 397.869 276.994 394.268 276.003L394.929 268.298C395.007 267.433 394.363 266.662 393.498 266.599C392.617 266.505 391.878 267.166 391.799 268.03L391.123 275.846C387.506 276.491 383.78 279.871 379.785 286.114C379.314 286.853 379.534 287.813 380.257 288.284C380.996 288.756 381.956 288.536 382.427 287.797C386.327 281.68 389.865 278.598 392.774 278.881C395.526 279.148 398.278 282.608 400.731 288.882C400.983 289.511 401.565 289.888 402.194 289.888C402.382 289.888 402.587 289.857 402.76 289.778C403.562 289.464 403.971 288.552 403.656 287.734L403.672 287.75Z" fill="url(#paint16_linear_3119_4158)"/>
<path fill-rule="evenodd" clip-rule="evenodd" d="M302.243 366.959C302.655 366.811 303.065 366.65 303.471 366.491L303.471 366.491C304.443 366.11 305.395 365.737 306.316 365.56C306.961 365.34 307.527 365.45 307.464 365.56C307.459 365.569 307.455 365.573 307.451 365.576C307.443 365.582 307.442 365.583 307.464 365.638C309.587 369.507 314.635 370.151 317.858 366.409L317.764 366C316.915 365.544 316.176 365.308 315.468 365.151C314.336 364.805 313.267 364.49 312.197 364.506L312.136 364.506C311.749 364.507 311.373 364.508 310.955 364.239C310.799 364.134 310.637 364.011 310.468 363.883C309.904 363.454 309.257 362.964 308.47 362.855C308.061 362.756 307.691 362.813 307.307 362.872C307.203 362.888 307.099 362.905 306.992 362.918C306.812 362.978 306.44 363.129 306.169 363.24C306.085 363.274 306.01 363.304 305.954 363.327C304.366 364.239 303.124 365.45 301.992 366.613L302.259 366.943L302.243 366.959ZM301.624 368.65L301.617 368.645V368.66L301.624 368.65ZM301.624 368.65L301.868 368.299C305.501 369.478 309.228 370.595 313.002 371.176C317.122 371.349 319.937 371.617 324.088 372.686L324.214 373.079C322.715 374.628 320.809 375.419 318.816 375.651C321.779 375.858 324.621 376.058 328.015 376.521L328.156 376.914C319.445 384.274 306.849 376.631 299.977 371.363L300.244 371.002C304.616 372.826 309.176 374.461 313.909 375.279C314.041 375.29 314.171 375.302 314.301 375.313C313.428 375.09 312.587 374.785 311.807 374.416C307.989 373.065 304.673 370.991 301.624 368.65ZM321.24 384.385C312.135 389.228 303.284 378.819 299.541 372.577L299.877 372.009C300.335 372.407 300.797 372.814 301.263 373.225C303.913 375.563 306.703 378.026 309.886 379.51C310.124 379.591 310.359 379.67 310.59 379.749C314.409 381.044 317.37 382.048 321.24 383.96V384.385Z" fill="url(#paint17_radial_3119_4158)"/>
<path fill-rule="evenodd" clip-rule="evenodd" d="M428.371 397.858C428.78 397.976 429.193 398.095 429.609 398.203L429.593 398.172L429.829 397.826C428.587 396.788 427.234 395.734 425.583 394.979C425.491 394.955 425.343 394.909 425.184 394.859C424.935 394.781 424.657 394.694 424.514 394.665C424.398 394.661 424.283 394.653 424.17 394.646C423.791 394.62 423.423 394.595 423.036 394.728C422.277 394.909 421.675 395.431 421.152 395.884C420.992 396.023 420.84 396.155 420.693 396.269C420.284 396.583 419.875 396.615 419.482 396.631C418.428 396.693 417.39 397.087 416.29 397.511C415.613 397.731 414.89 398.014 414.088 398.518L414.025 398.926C417.579 402.276 422.532 401.238 424.294 397.354C424.316 397.299 424.315 397.298 424.306 397.291C424.303 397.288 424.298 397.285 424.294 397.275C424.215 397.181 424.765 397.024 425.426 397.181C426.367 397.282 427.357 397.566 428.371 397.858ZM430.376 399.777C427.561 402.278 424.431 404.542 420.752 406.146C420.023 406.554 419.231 406.908 418.402 407.189C418.514 407.171 418.627 407.152 418.74 407.134C423.379 405.97 427.766 404.036 431.949 401.929L432.248 402.243V402.259C432.141 402.353 432.032 402.449 431.922 402.544L432.094 402.637H432.079C428.934 408.943 421.789 420.406 412.291 416.475C412.128 416.362 412.202 416.192 412.291 416.054C414.121 413.202 416.822 412.337 419.381 411.518C421.004 410.999 422.57 410.498 423.819 409.519C426.147 407.696 427.749 406.251 429.523 404.539C422.872 409.791 412.845 415.412 404.713 409.854L404.807 409.461C408.118 408.746 410.91 408.323 413.823 407.89C411.842 407.814 409.899 407.203 408.282 405.847L408.376 405.454C412.402 404.086 415.185 403.614 419.274 403.111C422.985 402.246 426.586 400.878 430.093 399.447L430.376 399.777Z" fill="url(#paint18_radial_3119_4158)"/>
<path d="M424.481 364.425C423.946 363.733 422.955 363.607 422.279 364.158L392.983 386.959L315.553 366.186C314.719 365.966 313.854 366.453 313.634 367.303C313.414 368.136 313.902 369.001 314.751 369.237L392.7 390.151L395.358 416.664C395.405 417.073 395.735 417.371 396.144 417.371C396.175 417.371 396.191 417.371 396.223 417.371C396.647 417.324 396.977 416.947 396.93 416.507L394.273 389.978L424.229 366.658C424.921 366.123 425.031 365.133 424.496 364.456L424.481 364.425Z" fill="#FD2D2E"/>
<path d="M660.59 75.5414L610.774 85.1864L593.256 35L552.93 75.5414L529.299 43.1361L504.53 85.198L463.659 79.3947V129.221L428.994 146.747L449.853 190.828L425.026 216.479L457.139 248.524L438.623 286.71L480.19 303.481L477.847 346.019L522.349 334.482L534.334 375L576.052 343.744L597.943 372.458L625.52 329.514L662.214 342.061L666.565 296.157L705.244 280.372L686.125 231.451L715 200.601L674.465 174.788L691.914 135.454L650.555 122.246L660.59 75.5414Z" fill="url(#paint19_radial_3119_4158)"/>
<path d="M517.062 147.673C517.792 143.959 518.257 140.466 518.535 136.531C518.605 135.603 517.908 134.802 516.98 134.732C516.064 134.674 515.252 135.359 515.182 136.287C514.939 139.711 514.567 142.683 513.987 145.839C510.936 144.331 507.456 143.391 503.488 143.042C502.572 142.95 501.748 143.646 501.667 144.574C501.585 145.503 502.27 146.315 503.198 146.397C511.795 147.151 517.827 150.946 521.667 157.991C521.969 158.549 522.549 158.874 523.141 158.874C523.407 158.874 523.686 158.804 523.941 158.665C524.753 158.224 525.055 157.202 524.614 156.378C522.619 152.711 520.113 149.821 517.062 147.673Z" fill="url(#paint20_linear_3119_4158)"/>
<path d="M587.075 134.386C586.867 133.481 585.962 132.923 585.057 133.132C577.991 134.792 571.379 138.297 566.193 142.882C566.692 138.773 567.202 134.595 567.852 130.509C568.003 129.592 567.376 128.733 566.46 128.583C565.543 128.443 564.685 129.058 564.534 129.987C563.768 134.792 563.177 139.725 562.608 144.495L562.33 146.805C560.555 148.894 559.07 151.134 557.944 153.467C557.538 154.303 557.887 155.312 558.722 155.719C558.954 155.835 559.209 155.881 559.453 155.881C560.079 155.881 560.682 155.533 560.972 154.929C565.161 146.248 574.917 138.982 585.834 136.417C586.739 136.208 587.296 135.303 587.087 134.397L587.075 134.386Z" fill="url(#paint21_linear_3119_4158)"/>
<path d="M527.49 180.952L516.863 165.132L506.353 180.952L499.914 179.443C493.858 189.367 488.927 199.789 483.347 209.98L474.089 228.748L477.837 252.03C482.709 262.255 494.948 290.726 494.948 290.726L507.397 282.996L532.351 227.065L527.502 180.952H527.49Z" fill="url(#paint22_linear_3119_4158)"/>
<path d="M580.798 166.479C572.724 173.779 565.276 181.672 557.085 188.844L527.49 180.952L532.34 227.065L507.385 282.996L538.337 323.955L569.568 272.376L588.675 195.437L580.798 166.49V166.479Z" fill="url(#paint23_linear_3119_4158)"/>
<path d="M569.579 272.365L593.258 282.985L606.994 267.478L625.416 244.532L616.565 209.957L607.249 185.397L588.675 195.414L575.136 230.976L569.568 272.353L569.579 272.365Z" fill="url(#paint24_linear_3119_4158)"/>
<path d="M551.412 206.08L578.698 194.706L579.267 221.134L569.904 245.484L540.588 250.823L541.934 226.67L551.412 206.068V206.08Z" fill="url(#paint25_linear_3119_4158)"/>
<path d="M516.225 211.535L539.926 189.169L559.556 207.043L572.445 232.937L553.999 278.679L513.255 263.973L505.946 233.924L516.237 211.535H516.225Z" fill="url(#paint26_linear_3119_4158)"/>
<path d="M572.433 232.52L543.94 241.677L520.355 233.413L518.267 228.562L543.94 222.77L572.433 232.775" fill="url(#paint27_linear_3119_4158)"/>
<path d="M593.118 262.035L540.588 279.828L551.574 220.437L586.877 212.615L599.824 220.437L593.118 262.035Z" fill="url(#paint28_linear_3119_4158)"/>
<path d="M551.574 220.437L579.649 247.91L591.9 247.329L592.921 261.861L567.688 255.709L551.574 220.426V220.437Z" fill="#231F20"/>
<path d="M502.686 192.779C502.686 192.779 487.848 216.886 484.867 221.876L481.746 240.412L489.937 259.876L524.218 287.975L505.389 247.341L502.675 192.779H502.686Z" fill="url(#paint29_linear_3119_4158)"/>
<path d="M520.611 220.437L502.687 192.779L505.401 247.341L524.23 287.975L530.1 242.513L520.611 220.437Z" fill="url(#paint30_linear_3119_4158)"/>
<path d="M481.746 240.412L505.401 247.341L530.1 242.513L504.867 224.813L481.746 240.4V240.412Z" fill="url(#paint31_linear_3119_4158)"/>
<path d="M488.824 235.434C485.243 225.83 466.567 184.297 466.567 184.297C446.385 182.364 443.894 190.575 440.292 219.673C440.788 220.854 459.954 245.934 473.88 247.038C481.62 247.651 485.621 247.698 488.824 244.294C490.472 242.363 490.415 239.7 488.824 235.434Z" fill="url(#paint32_radial_3119_4158)"/>
<path d="M650.853 254.296C691.225 236.735 667.187 209.726 649.774 205.002L559.324 230.111C556.648 230.942 551.884 233.369 554.239 236.427C565.179 253.834 610.482 271.858 650.853 254.296Z" fill="url(#paint33_radial_3119_4158)"/>
<path d="M573.661 227.214C573.663 227.213 573.664 227.212 573.665 227.212V227.223L573.661 227.214Z" fill="url(#paint34_linear_3119_4158)"/>
<path d="M573.661 227.214L573.538 226.898C572.775 227.089 572.007 227.288 571.234 227.489C568.094 228.305 564.889 229.138 561.751 229.417C560.355 229.588 559.046 229.182 557.734 228.776C556.2 228.3 554.662 227.824 552.98 228.268C551.855 228.547 550.834 228.999 549.917 229.684L549.987 230.021C550.497 230.158 551.01 230.273 551.52 230.388C552.865 230.69 554.187 230.987 555.382 231.669C556.171 232.075 557.424 232.597 558.7 232.632C563.908 232.434 568.479 229.987 572.948 227.595C573.186 227.468 573.424 227.341 573.661 227.214Z" fill="url(#paint35_linear_3119_4158)"/>
<path d="M566.54 237.091L566.538 237.092L566.482 236.755C562.189 236.952 557.873 236.731 553.685 235.942C552.479 235.608 551.333 235.285 550.209 234.967C547.389 234.171 544.709 233.414 541.574 232.634L541.353 232.901C543.673 237.219 548.79 238.774 553.349 238.705C557.815 238.948 562.269 238.333 566.538 237.092L566.54 237.103V237.091Z" fill="url(#paint36_linear_3119_4158)"/>
<path d="M539.218 238.041C545.68 247.384 559.01 244.506 567.989 241.001L567.897 240.664C565.426 241.07 562.966 241.453 560.518 241.593C554.666 242.253 549.477 240.706 544.076 239.095C542.55 238.64 541.007 238.179 539.427 237.763L539.218 238.041Z" fill="url(#paint37_linear_3119_4158)"/>
<path d="M540.528 246.246C548.602 253.186 561.828 248.114 569.833 243.367H569.844L569.693 243.054C565.018 244.737 560.157 245.909 555.25 246.246C552.874 246.251 550.641 246.166 548.402 246.081L548.4 246.081C545.895 245.986 543.381 245.89 540.656 245.921L540.528 246.246Z" fill="url(#paint38_linear_3119_4158)"/>
<path d="M480.567 232.133C480.445 232.317 480.328 232.493 480.217 232.656L480.229 232.668L480.484 232.9C480.703 232.733 480.921 232.564 481.139 232.395C482.134 231.626 483.122 230.862 484.15 230.3C484.73 229.94 485.426 229.754 485.565 229.905C485.757 230.082 485.95 230.27 486.147 230.463C487.022 231.317 487.978 232.249 489.266 232.61C492.016 233.399 494.73 231.902 496.273 229.696L496.134 229.383C494.539 229.156 492.989 229.185 491.466 229.213C490.962 229.223 490.461 229.232 489.962 229.232C489.463 229.255 488.988 229.186 488.442 228.849L487.468 228.199C484.514 226.2 482.097 229.833 480.567 232.133Z" fill="url(#paint39_linear_3119_4158)"/>
<path d="M477.908 233.049C481.83 234.082 485.844 234.976 489.858 235.197C492.381 235.119 494.587 234.994 496.89 234.864L496.892 234.864C498.379 234.78 499.907 234.694 501.587 234.616L501.749 234.918C497.248 240.686 489.138 238.307 483.407 236.102C481.47 235.278 479.579 234.396 477.781 233.374L477.908 233.049Z" fill="url(#paint40_linear_3119_4158)"/>
<path d="M488.44 243.507C483.394 243.158 478.405 241.789 473.591 240.129L473.602 240.141L473.452 240.454C475.691 241.789 478.034 242.949 480.459 243.982C487.617 246.884 497.571 249.159 503.36 242.416L503.186 242.114C497.977 242.915 493.603 243.53 488.44 243.507Z" fill="url(#paint41_linear_3119_4158)"/>
<path d="M485.933 249.671C481.722 248.069 477.801 245.655 474.204 242.881V242.893L473.961 243.136C475.434 244.947 477.105 246.607 478.88 248.162C484.193 252.561 492.198 257.435 498.88 252.932L498.799 252.596C494.135 251.725 490.365 250.971 485.933 249.671Z" fill="url(#paint42_linear_3119_4158)"/>
<path d="M606.505 501.77L596.916 505.965L589.824 459.817C577.637 464.611 568.248 478.296 558.958 492.38L547.671 469.406C540.379 473.701 534.186 486.987 527.893 499.473L512.909 489.584C508.914 496.576 508.315 509.661 507.815 522.946L489.436 506.964L495.829 545.821L477.955 555.212L486.039 578.884L470.359 601.479L493.489 615.71C492.69 621.278 482.495 653.07 481.506 658.893C486.763 657.028 499.757 651.494 511.338 647C510.805 654.848 515.259 683.907 518.482 696.906C524.391 691.427 550.601 666.464 563.924 662.959C568.651 668.867 607.278 698.68 611.692 700.187C611.692 679.884 610.634 650.186 614.931 640.524L660.345 625.432L635.073 603.157L686.616 597.863L650.855 572.791L691.81 530.138C674.329 528.44 656.749 526.742 633.675 525.344L638.869 487.586C631.877 489.684 622.787 493.979 613.397 498.673L606.505 501.77Z" fill="url(#paint43_radial_3119_4158)"/>
<path d="M511.392 540.956L467.329 482.173C466.93 478.277 447.352 482.372 462.035 484.07L494.258 573.88C507.414 589.141 512.983 581.623 517.713 572.195C522.444 562.767 513.727 547.913 511.392 540.956Z" fill="url(#paint44_linear_3119_4158)"/>
<path d="M457.241 469.184C458.339 473.979 460.537 478.574 463.833 482.17L464.233 481.87C463.234 479.672 462.535 477.475 462.035 475.277C461.536 473.08 461.236 470.782 461.136 468.585C461.099 467.765 461.145 466.916 461.192 466.061C461.27 464.625 461.349 463.17 461.036 461.792C460.903 461.06 460.748 460.372 460.592 459.684C460.282 458.307 459.971 456.931 459.838 455.2L459.438 455C458.24 455.699 457.44 456.898 456.941 458.196C455.343 461.792 456.242 465.588 457.241 469.184Z" fill="url(#paint45_linear_3119_4158)"/>
<path d="M472.024 476.876C470.326 479.673 468.129 481.971 465.631 484.168C465.631 484.168 465.831 484.568 465.831 484.468C469.727 483.469 473.223 481.171 476.12 478.375C478.717 476.177 479.816 472.681 478.417 469.285L477.918 469.185C476.22 470.383 475.121 471.582 474.122 472.781C473.542 473.477 473.197 474.309 472.854 475.138C472.606 475.735 472.359 476.332 472.024 476.876Z" fill="url(#paint46_linear_3119_4158)"/>
<path d="M462.839 483.539C459.502 481.318 456.099 479.053 453.744 475.678C450.548 469.784 449.449 462.093 453.045 456.1L453.545 456.2C454.544 459.096 455.243 461.594 455.842 464.291C456.221 465.643 456.219 467.143 456.216 468.63C456.214 469.888 456.213 471.137 456.441 472.282C456.941 474.779 458.539 476.777 460.237 478.774C461.014 479.681 461.828 480.568 462.647 481.462C463.554 482.45 464.466 483.445 465.341 484.479C465.504 484.509 465.668 484.539 465.831 484.568V484.968C465.805 484.969 465.778 484.97 465.752 484.971C465.778 485.003 465.805 485.035 465.831 485.067L465.531 485.367C465.358 485.245 465.184 485.123 465.009 485.001C458.883 485.219 452.697 484.631 447.152 481.571C444.055 479.973 440.959 477.176 440.26 473.58C439.96 472.282 439.96 470.783 440.06 469.485C440.359 467.187 441.858 465.389 443.256 463.891L443.756 463.991C443.896 464.974 443.883 465.87 443.87 466.719C443.856 467.681 443.843 468.583 444.055 469.485C444.655 471.682 445.454 473.38 446.652 475.378C448.051 477.676 450.448 479.274 452.945 480.572C456.417 482.266 460.032 483.385 463.791 484.174C463.475 483.962 463.157 483.75 462.839 483.539Z" fill="url(#paint47_linear_3119_4158)"/>
<path fill-rule="evenodd" clip-rule="evenodd" d="M656.781 478.507C661.506 475.66 665.061 470.475 665.288 464.907L664.935 464.695C663.461 466.284 661.995 467.849 660.529 469.414C659.063 470.979 657.597 472.544 656.124 474.132C651.317 479.403 644.372 482.588 637.174 482.835C638.767 481.547 640.396 480.451 642.112 479.381L642.218 479.313C647.52 475.918 654.774 471.274 653.379 463.905L653.026 463.693C652.327 464.38 651.763 465.045 651.243 465.658L651.243 465.658C651.099 465.828 650.958 465.994 650.818 466.155C650.532 466.49 650.21 466.855 649.874 467.236L649.874 467.236C648.878 468.364 647.751 469.64 647.026 470.746C645.642 473.034 643.7 474.937 641.754 476.843C639.876 478.684 637.994 480.527 636.61 482.723L636.935 483.03L636.985 482.989L636.972 483.252C643.8 484.487 651.01 482.393 656.781 478.507ZM654.356 483.406C648.628 485.427 642.316 484.558 636.532 483.326L636.54 483.641C638.785 484.844 641.146 485.664 643.631 486.418C647.388 487.452 651.502 487.655 655.407 487.169C659.436 486.617 662.765 483.555 664.756 480.088L664.527 479.81C663.177 480.131 662.018 480.51 660.83 480.985C659.831 481.36 658.715 481.776 657.599 482.193L657.597 482.194L657.593 482.196C656.475 482.613 655.357 483.031 654.356 483.406ZM632.211 475.541C632.688 479.13 634.084 482.789 636.372 485.57L636.717 485.466C636.1 483.713 635.645 482.114 635.536 480.411C635.426 478.708 635.316 477.004 635.397 475.359C635.429 474.722 635.536 474.093 635.644 473.461C635.815 472.458 635.987 471.447 635.861 470.385L635.861 470.385C635.656 468.652 635.45 466.92 634.672 465.014L634.26 464.994C632.945 466.578 632.203 468.336 631.872 470.115C631.532 471.515 631.778 472.959 632.03 474.431C632.093 474.8 632.156 475.169 632.211 475.541Z" fill="url(#paint48_linear_3119_4158)"/>
<path d="M631.671 568.903L639.408 484.511C639.446 483.951 646.534 483.806 645.663 483.045C644.466 481.997 635.166 480.456 634.893 481.159L593.594 578.131C593.536 578.322 593.507 578.418 593.449 578.609C592.825 592.719 629.58 590.606 631.671 568.903Z" fill="url(#paint49_linear_3119_4158)"/>
<path d="M543.071 569.037C544.608 564.027 543.973 559.388 541.652 558.676C539.332 557.964 536.205 561.449 534.668 566.459C533.13 571.469 533.765 576.108 536.086 576.82C538.407 577.532 541.534 574.047 543.071 569.037Z" fill="url(#paint50_linear_3119_4158)"/>
<path d="M539.384 527.469C539.722 527.033 539.643 526.406 539.207 526.068C538.771 525.73 538.143 525.809 537.805 526.245L534.393 530.643C533.291 530.27 532.118 530.144 531.167 530.11C531.122 530.109 531.073 530.107 531.021 530.105C529.999 530.065 527.696 529.975 527.696 531.356C527.791 532.024 528.395 532.25 528.985 532.184C529.319 532.146 530.135 532.073 531.097 532.107C532.425 532.153 533.856 532.397 534.804 533.039C534.885 533.095 535.051 533.269 535.248 533.683C535.437 534.078 535.612 534.602 535.771 535.235C536.088 536.498 536.305 538.07 536.452 539.628C536.598 541.18 536.672 542.687 536.709 543.808C536.713 543.958 536.707 544.14 536.7 544.339C536.667 545.297 536.62 546.647 537.744 546.647C538.6 546.633 538.767 546.233 538.738 545.123C538.733 544.791 538.724 544.316 538.705 543.743C538.668 542.597 538.592 541.047 538.441 539.441C538.29 537.843 538.062 536.156 537.709 534.749C537.533 534.046 537.318 533.382 537.051 532.823C536.839 532.379 536.562 531.93 536.186 531.591L539.384 527.469Z" fill="url(#paint51_linear_3119_4158)"/>
<path d="M566.542 529.255C566.512 528.704 566.041 528.282 565.49 528.312C564.939 528.342 564.517 528.813 564.547 529.364L564.851 534.917C564.079 535.362 563.364 536.015 562.73 536.709C561.683 537.854 560.698 539.29 559.859 540.67C559.017 542.056 558.302 543.416 557.799 544.427C557.692 544.64 557.649 544.735 557.602 544.839C557.537 544.981 557.464 545.141 557.21 545.649C556.769 546.53 556.92 547.154 557.506 547.438C558.47 547.904 559.015 546.632 559.388 545.762C559.461 545.593 559.526 545.44 559.587 545.317C560.075 544.338 560.762 543.031 561.566 541.708C562.374 540.379 563.282 539.066 564.204 538.057C565.161 537.01 566.041 536.557 566.671 536.452C568.014 536.226 569.055 536.989 569.932 538.314C570.464 539.12 570.89 540.019 571.178 540.942L571.179 540.943C571.336 541.472 571.891 541.773 572.42 541.616C573.139 541.403 573.203 540.674 572.997 540.077C572.813 539.548 572.367 538.375 571.598 537.212C570.682 535.829 569.106 534.192 566.819 534.317L566.542 529.255Z" fill="url(#paint52_linear_3119_4158)"/>
<circle cx="550.661" cy="403.373" r="73.7711" transform="rotate(-11.1635 550.661 403.373)" fill="#F2F3F8"/>
<path d="M529.717 423.296C527.86 425.621 525.332 427.1 522.132 427.732C516.646 428.814 513.384 426.727 512.346 421.469C512.098 420.212 511.976 418.99 511.979 417.802C511.914 412.055 512.017 407.167 512.29 403.135C512.495 399.057 513.526 395.856 515.382 393.53C517.296 391.193 519.853 389.709 523.053 389.077C528.482 388.006 531.709 390.07 532.735 395.271C532.984 396.528 533.112 397.779 533.12 399.024C533.224 403.16 533.148 408.043 532.894 413.674C532.689 417.752 531.63 420.959 529.717 423.296Z" fill="url(#paint53_linear_3119_4158)"/>
<path d="M590.486 390.108C588.974 391.772 587.018 392.841 584.618 393.314L574.76 395.26L574.99 379.273L585.276 377.243C587.619 376.781 589.366 376.911 590.518 377.634C591.659 378.299 592.393 379.461 592.72 381.118C592.866 381.861 592.95 382.735 592.97 383.74C592.883 386.31 592.056 388.433 590.486 390.108Z" fill="url(#paint54_linear_3119_4158)"/>
<path fill-rule="evenodd" clip-rule="evenodd" d="M573.203 517.595C636.277 505.147 677.319 443.925 664.872 380.85C652.424 317.775 591.202 276.734 528.127 289.181C465.052 301.628 424.01 362.851 436.458 425.926C448.905 489 510.128 530.042 573.203 517.595ZM505.705 438.81C510.68 441.153 516.567 441.654 523.367 440.312C531.596 438.688 537.79 435.477 541.949 430.678C546.097 425.822 548.398 419.283 548.853 411.059C549.106 406.022 549.159 400.876 549.013 395.621C548.938 393.736 548.782 392.193 548.545 390.993C547.755 386.993 546.079 383.762 543.515 381.299C540.94 378.779 537.768 377.149 534 376.408C530.221 375.61 526.132 375.646 521.731 376.514C505.559 379.705 497.081 389.542 496.296 406.024C496.064 412.066 495.982 417.218 496.051 421.479C496.126 423.364 496.288 424.935 496.536 426.192C497.72 432.193 500.776 436.399 505.705 438.81ZM559.16 431.734C559.582 432.067 560.107 432.171 560.736 432.047L572.393 429.746C572.965 429.634 573.468 429.326 573.903 428.825C574.339 428.323 574.552 427.747 574.542 427.096L574.78 407.545L586.352 405.262C593.838 403.785 599.414 401.051 603.08 397.063C606.803 393.063 608.73 387.636 608.862 380.782C608.9 379.171 608.778 377.652 608.496 376.223C607.515 371.252 604.822 367.835 600.418 365.973C596.07 364.1 590.725 363.789 584.382 365.041L561.581 369.541C561.009 369.653 560.506 369.96 560.07 370.462C559.635 370.964 559.422 371.54 559.432 372.191L558.598 430.242C558.597 430.836 558.784 431.334 559.16 431.734Z" fill="url(#paint55_linear_3119_4158)"/>
<defs>
<linearGradient id="paint0_linear_3119_4158" x1="23.0812" y1="181.023" x2="10.1575" y2="182.404" gradientUnits="userSpaceOnUse">
<stop stop-color="#FF9330"/>
<stop offset="0.878495" stop-color="#FA4119"/>
</linearGradient>
<radialGradient id="paint1_radial_3119_4158" cx="0" cy="0" r="1" gradientUnits="userSpaceOnUse" gradientTransform="translate(100.533 99.6793) rotate(6.57005) scale(193.366 180.518)">
<stop offset="0.221759" stop-color="#FFF8D6"/>
<stop offset="0.335" stop-color="#FFE767"/>
<stop offset="0.435" stop-color="#FF9D42"/>
<stop offset="0.686918" stop-color="#FA4119"/>
</radialGradient>
<linearGradient id="paint2_linear_3119_4158" x1="100.788" y1="78.6068" x2="129.112" y2="78.6068" gradientUnits="userSpaceOnUse">
<stop offset="0.16" stop-color="#ED7100"/>
<stop offset="0.9" stop-color="#FA4119"/>
</linearGradient>
<linearGradient id="paint3_linear_3119_4158" x1="246.079" y1="59.0982" x2="232.091" y2="61.9662" gradientUnits="userSpaceOnUse">
<stop stop-color="#FA4119"/>
<stop offset="0.878495" stop-color="#FF9330"/>
</linearGradient>
<linearGradient id="paint4_linear_3119_4158" x1="51.6774" y1="85.788" x2="72.8894" y2="85.788" gradientUnits="userSpaceOnUse">
<stop offset="0.16" stop-color="#FA4119"/>
<stop offset="0.9" stop-color="#ED7100"/>
</linearGradient>
<linearGradient id="paint5_linear_3119_4158" x1="87.1374" y1="104.788" x2="93.3553" y2="101.247" gradientUnits="userSpaceOnUse">
<stop offset="0.1" stop-color="#FA4119"/>
<stop offset="0.84" stop-color="#ED7100"/>
</linearGradient>
<linearGradient id="paint6_linear_3119_4158" x1="236.385" y1="47.2604" x2="265.1" y2="47.2604" gradientUnits="userSpaceOnUse">
<stop stop-color="#5DDDEF"/>
<stop offset="0.82" stop-color="#69BAE8"/>
</linearGradient>
<linearGradient id="paint7_linear_3119_4158" x1="259.33" y1="22.5497" x2="239.625" y2="94.3371" gradientUnits="userSpaceOnUse">
<stop stop-color="#4298EB"/>
<stop offset="0.82" stop-color="#69BAE8"/>
</linearGradient>
<linearGradient id="paint8_linear_3119_4158" x1="233.538" y1="65.8126" x2="270.8" y2="36.003" gradientUnits="userSpaceOnUse">
<stop offset="0.27" stop-color="#66B4D7"/>
<stop offset="0.32" stop-color="#70B9CE"/>
<stop offset="0.44" stop-color="#85C5BD"/>
<stop offset="0.58" stop-color="#94CDB2"/>
<stop offset="0.75" stop-color="#9DD2AB"/>
<stop offset="1" stop-color="#A0D4A9"/>
</linearGradient>
<linearGradient id="paint9_linear_3119_4158" x1="239.088" y1="54.8246" x2="233.205" y2="55.5123" gradientUnits="userSpaceOnUse">
<stop stop-color="#FA4119"/>
<stop offset="0.878495" stop-color="#FF9330"/>
</linearGradient>
<radialGradient id="paint10_radial_3119_4158" cx="0" cy="0" r="1" gradientUnits="userSpaceOnUse" gradientTransform="translate(384.024 284.105) rotate(-145.128) scale(242.945 223.393)">
<stop offset="0.179636" stop-color="#FFF9FF"/>
<stop offset="0.273686" stop-color="#FFE2FE"/>
<stop offset="0.564578" stop-color="#FF89AC"/>
<stop offset="0.869362" stop-color="#FC2C2C"/>
</radialGradient>
<radialGradient id="paint11_radial_3119_4158" cx="0" cy="0" r="1" gradientUnits="userSpaceOnUse" gradientTransform="translate(331.543 294.14) rotate(140.371) scale(93.3866 87.0467)">
<stop offset="0.0822582" stop-color="#FFF9FF" stop-opacity="0"/>
<stop offset="0.262081" stop-color="#FFE2FE" stop-opacity="0.4"/>
<stop offset="0.584229" stop-color="#FF89AC"/>
<stop offset="0.869362" stop-color="#FC2C2C"/>
</radialGradient>
<linearGradient id="paint12_linear_3119_4158" x1="370.105" y1="342.207" x2="370.105" y2="426.871" gradientUnits="userSpaceOnUse">
<stop stop-color="#E9BDB8"/>
<stop offset="1" stop-color="#FC2D99"/>
</linearGradient>
<radialGradient id="paint13_radial_3119_4158" cx="0" cy="0" r="1" gradientUnits="userSpaceOnUse" gradientTransform="translate(415.338 303.595) rotate(57.5838) scale(92.0768 93.4403)">
<stop offset="0.154701" stop-color="#FFF9FF"/>
<stop offset="0.321764" stop-color="#FFE2FE"/>
<stop offset="0.72" stop-color="#FF89AC"/>
<stop offset="1" stop-color="#FC2C2C"/>
</radialGradient>
<linearGradient id="paint14_linear_3119_4158" x1="364.558" y1="286.339" x2="361.34" y2="328.699" gradientUnits="userSpaceOnUse">
<stop offset="0.16" stop-color="#E20ABD"/>
<stop offset="0.909943" stop-color="#DF0A70"/>
</linearGradient>
<linearGradient id="paint15_linear_3119_4158" x1="361.662" y1="294.016" x2="342.356" y2="263.937" gradientUnits="userSpaceOnUse">
<stop offset="0.16" stop-color="#E20ABD"/>
<stop offset="0.909943" stop-color="#DF0A70"/>
</linearGradient>
<linearGradient id="paint16_linear_3119_4158" x1="375.522" y1="296.679" x2="408.357" y2="288.373" gradientUnits="userSpaceOnUse">
<stop offset="0.16" stop-color="#E20ABD"/>
<stop offset="0.909943" stop-color="#DF0A70"/>
</linearGradient>
<radialGradient id="paint17_radial_3119_4158" cx="0" cy="0" r="1" gradientUnits="userSpaceOnUse" gradientTransform="translate(301.807 371.14) rotate(18.4779) scale(33.0073 35.5122)">
<stop stop-color="#FD2D2E"/>
<stop offset="1" stop-color="#C93131"/>
</radialGradient>
<radialGradient id="paint18_radial_3119_4158" cx="0" cy="0" r="1" gradientUnits="userSpaceOnUse" gradientTransform="translate(416.495 410.832) rotate(-33.3981) scale(18.868 19.833)">
<stop stop-color="#C93131"/>
<stop offset="1" stop-color="#FD2D2E"/>
</radialGradient>
<radialGradient id="paint19_radial_3119_4158" cx="0" cy="0" r="1" gradientUnits="userSpaceOnUse" gradientTransform="translate(553.833 175.407) rotate(45.3193) scale(296.724 283.613)">
<stop offset="0.27572" stop-color="#EFFFF7"/>
<stop offset="0.344177" stop-color="#B8FFE4"/>
<stop offset="0.434689" stop-color="#6FE8EC"/>
<stop offset="0.589449" stop-color="#4991E5"/>
</radialGradient>
<linearGradient id="paint20_linear_3119_4158" x1="501.637" y1="146.788" x2="524.814" y2="158.879" gradientUnits="userSpaceOnUse">
<stop offset="0.16" stop-color="#018EAD"/>
<stop offset="0.9" stop-color="#00AAB5"/>
</linearGradient>
<linearGradient id="paint21_linear_3119_4158" x1="557.775" y1="155.881" x2="587.139" y2="142.201" gradientUnits="userSpaceOnUse">
<stop offset="0.1" stop-color="#00AAB5"/>
<stop offset="0.84" stop-color="#018EAD"/>
</linearGradient>
<linearGradient id="paint22_linear_3119_4158" x1="500.146" y1="311.641" x2="506.857" y2="129.037" gradientUnits="userSpaceOnUse">
<stop stop-color="#A2D0EE"/>
<stop offset="1" stop-color="#B0CCEE"/>
</linearGradient>
<linearGradient id="paint23_linear_3119_4158" x1="545.321" y1="313.301" x2="552.021" y2="130.696" gradientUnits="userSpaceOnUse">
<stop stop-color="#A2D0EE"/>
<stop offset="0.84" stop-color="#D1ECBC"/>
</linearGradient>
<linearGradient id="paint24_linear_3119_4158" x1="596.831" y1="276.392" x2="600.976" y2="163.763" gradientUnits="userSpaceOnUse">
<stop stop-color="#A2D0EE"/>
<stop offset="0.78" stop-color="#A6D6C4"/>
</linearGradient>
<linearGradient id="paint25_linear_3119_4158" x1="548.848" y1="234.272" x2="577.605" y2="213.636" gradientUnits="userSpaceOnUse">
<stop stop-color="#A2D0EE"/>
<stop offset="1" stop-color="#97E7DD"/>
</linearGradient>
<linearGradient id="paint26_linear_3119_4158" x1="540.681" y1="262.383" x2="537.731" y2="205.442" gradientUnits="userSpaceOnUse">
<stop stop-color="#A2D0EE"/>
<stop offset="1" stop-color="#5182BB"/>
</linearGradient>
<linearGradient id="paint27_linear_3119_4158" x1="518.278" y1="232.229" x2="572.433" y2="232.229" gradientUnits="userSpaceOnUse">
<stop offset="0.08" stop-color="#7954A3"/>
<stop offset="1" stop-color="#7CD1E6"/>
</linearGradient>
<linearGradient id="paint28_linear_3119_4158" x1="571.83" y1="233.054" x2="568.765" y2="265.459" gradientUnits="userSpaceOnUse">
<stop stop-color="#A2D0EE"/>
<stop offset="1" stop-color="#876ECD"/>
</linearGradient>
<linearGradient id="paint29_linear_3119_4158" x1="481.746" y1="240.377" x2="530.1" y2="240.377" gradientUnits="userSpaceOnUse">
<stop stop-color="#A2D0EE"/>
<stop offset="1" stop-color="#BB519E"/>
</linearGradient>
<linearGradient id="paint30_linear_3119_4158" x1="505.714" y1="251.136" x2="539.633" y2="204.052" gradientUnits="userSpaceOnUse">
<stop stop-color="#A2D0EE"/>
<stop offset="1" stop-color="#BB519E"/>
</linearGradient>
<linearGradient id="paint31_linear_3119_4158" x1="481.746" y1="236.083" x2="530.1" y2="236.083" gradientUnits="userSpaceOnUse">
<stop offset="0.12" stop-color="#87B3C1"/>
<stop offset="0.55" stop-color="#70B9CE"/>
<stop offset="1" stop-color="#A0CBD4"/>
</linearGradient>
<radialGradient id="paint32_radial_3119_4158" cx="0" cy="0" r="1" gradientUnits="userSpaceOnUse" gradientTransform="translate(465.165 176.047) rotate(77.1979) scale(80.636 70.9445)">
<stop offset="0.0922551" stop-color="#EFFFF7" stop-opacity="0"/>
<stop offset="0.403969" stop-color="#B8FFE4"/>
<stop offset="0.671183" stop-color="#6FE8EC"/>
<stop offset="0.852971" stop-color="#4991E5"/>
</radialGradient>
<radialGradient id="paint33_radial_3119_4158" cx="0" cy="0" r="1" gradientUnits="userSpaceOnUse" gradientTransform="translate(645.247 179.285) rotate(133.17) scale(125.481 94.1062)">
<stop stop-color="#EFFFF7" stop-opacity="0"/>
<stop offset="0.286216" stop-color="#B8FFE4" stop-opacity="0.83"/>
<stop offset="0.585716" stop-color="#6FE8EC"/>
<stop offset="0.80101" stop-color="#4991E5"/>
</radialGradient>
<linearGradient id="paint34_linear_3119_4158" x1="541.791" y1="241.627" x2="573.665" y2="245.563" gradientUnits="userSpaceOnUse">
<stop stop-color="#456CF5"/>
<stop offset="1" stop-color="#4991E5"/>
</linearGradient>
<linearGradient id="paint35_linear_3119_4158" x1="541.791" y1="241.627" x2="573.665" y2="245.563" gradientUnits="userSpaceOnUse">
<stop stop-color="#456CF5"/>
<stop offset="1" stop-color="#4991E5"/>
</linearGradient>
<linearGradient id="paint36_linear_3119_4158" x1="541.791" y1="241.627" x2="573.665" y2="245.563" gradientUnits="userSpaceOnUse">
<stop stop-color="#456CF5"/>
<stop offset="1" stop-color="#4991E5"/>
</linearGradient>
<linearGradient id="paint37_linear_3119_4158" x1="541.791" y1="241.627" x2="573.665" y2="245.563" gradientUnits="userSpaceOnUse">
<stop stop-color="#456CF5"/>
<stop offset="1" stop-color="#4991E5"/>
</linearGradient>
<linearGradient id="paint38_linear_3119_4158" x1="541.791" y1="241.627" x2="573.665" y2="245.563" gradientUnits="userSpaceOnUse">
<stop stop-color="#456CF5"/>
<stop offset="1" stop-color="#4991E5"/>
</linearGradient>
<linearGradient id="paint39_linear_3119_4158" x1="473.452" y1="236.799" x2="509.909" y2="256.596" gradientUnits="userSpaceOnUse">
<stop stop-color="#4991E5"/>
<stop offset="1" stop-color="#456CF5"/>
</linearGradient>
<linearGradient id="paint40_linear_3119_4158" x1="473.452" y1="236.799" x2="509.909" y2="256.596" gradientUnits="userSpaceOnUse">
<stop stop-color="#4991E5"/>
<stop offset="1" stop-color="#456CF5"/>
</linearGradient>
<linearGradient id="paint41_linear_3119_4158" x1="473.452" y1="236.799" x2="509.909" y2="256.596" gradientUnits="userSpaceOnUse">
<stop stop-color="#4991E5"/>
<stop offset="1" stop-color="#456CF5"/>
</linearGradient>
<linearGradient id="paint42_linear_3119_4158" x1="473.452" y1="236.799" x2="509.909" y2="256.596" gradientUnits="userSpaceOnUse">
<stop stop-color="#4991E5"/>
<stop offset="1" stop-color="#456CF5"/>
</linearGradient>
<radialGradient id="paint43_radial_3119_4158" cx="0" cy="0" r="1" gradientUnits="userSpaceOnUse" gradientTransform="translate(558.704 564.56) rotate(91.3923) scale(147.639 153.254)">
<stop offset="0.27967" stop-color="#EFFFF7"/>
<stop offset="0.352312" stop-color="#B8FFE4"/>
<stop offset="0.607135" stop-color="#6FE8EC"/>
<stop offset="0.833404" stop-color="#4991E5"/>
</radialGradient>
<linearGradient id="paint44_linear_3119_4158" x1="428.291" y1="487.523" x2="536.607" y2="547.754" gradientUnits="userSpaceOnUse">
<stop stop-color="#4991E5"/>
<stop offset="0.314673" stop-color="#6FE8EC"/>
<stop offset="0.595" stop-color="#B8FFE4"/>
<stop offset="1" stop-color="#EFFFF7" stop-opacity="0"/>
</linearGradient>
<linearGradient id="paint45_linear_3119_4158" x1="440" y1="445.49" x2="469.465" y2="495.222" gradientUnits="userSpaceOnUse">
<stop offset="0.17792" stop-color="#018EAD"/>
<stop offset="0.856452" stop-color="#00AAB5"/>
</linearGradient>
<linearGradient id="paint46_linear_3119_4158" x1="440" y1="445.49" x2="469.465" y2="495.222" gradientUnits="userSpaceOnUse">
<stop offset="0.17792" stop-color="#018EAD"/>
<stop offset="0.856452" stop-color="#00AAB5"/>
</linearGradient>
<linearGradient id="paint47_linear_3119_4158" x1="440" y1="445.49" x2="469.465" y2="495.222" gradientUnits="userSpaceOnUse">
<stop offset="0.17792" stop-color="#018EAD"/>
<stop offset="0.856452" stop-color="#00AAB5"/>
</linearGradient>
<linearGradient id="paint48_linear_3119_4158" x1="662.991" y1="459.102" x2="631.975" y2="491.686" gradientUnits="userSpaceOnUse">
<stop offset="0.121505" stop-color="#456CF5"/>
<stop offset="1" stop-color="#4991E5"/>
</linearGradient>
<linearGradient id="paint49_linear_3119_4158" x1="639.679" y1="488.783" x2="584.994" y2="551.701" gradientUnits="userSpaceOnUse">
<stop stop-color="#4991E5"/>
<stop offset="0.469057" stop-color="#6FE8EC"/>
<stop offset="0.714401" stop-color="#B8FFE4"/>
<stop offset="0.917489" stop-color="#EFFFF7" stop-opacity="0"/>
</linearGradient>
<linearGradient id="paint50_linear_3119_4158" x1="550.589" y1="564.35" x2="522.659" y2="583.028" gradientUnits="userSpaceOnUse">
<stop offset="0.0775548" stop-color="#018EAD"/>
<stop offset="0.547788" stop-color="#00AAB5"/>
</linearGradient>
<linearGradient id="paint51_linear_3119_4158" x1="526.331" y1="532.124" x2="538.312" y2="545.916" gradientUnits="userSpaceOnUse">
<stop offset="0.1" stop-color="#00AAB5"/>
<stop offset="1" stop-color="#018EAD"/>
</linearGradient>
<linearGradient id="paint52_linear_3119_4158" x1="579.411" y1="532.123" x2="548.76" y2="548.283" gradientUnits="userSpaceOnUse">
<stop offset="0.16" stop-color="#018EAD"/>
<stop offset="0.9" stop-color="#00AAB5"/>
</linearGradient>
<linearGradient id="paint53_linear_3119_4158" x1="528.127" y1="289.181" x2="573.203" y2="517.595" gradientUnits="userSpaceOnUse">
<stop offset="0.71" stop-color="#FF0420"/>
<stop offset="1" stop-color="#FFA8F1"/>
</linearGradient>
<linearGradient id="paint54_linear_3119_4158" x1="528.127" y1="289.181" x2="573.203" y2="517.595" gradientUnits="userSpaceOnUse">
<stop offset="0.71" stop-color="#FF0420"/>
<stop offset="1" stop-color="#FFA8F1"/>
</linearGradient>
<linearGradient id="paint55_linear_3119_4158" x1="528.127" y1="289.181" x2="573.203" y2="517.595" gradientUnits="userSpaceOnUse">
<stop offset="0.71" stop-color="#FF0420"/>
<stop offset="1" stop-color="#FFA8F1"/>
</linearGradient>
</defs>
</svg>
